<svg width="500" height="510" viewBox="0 0 500 510" fill="none" xmlns="http://www.w3.org/2000/svg">
<path d="M5.90667 32C5.90667 8 23.1915 0 23.1915 0L500 0.396885V473.483C500 473.483 464.078 509.6 408.423 509.997C352.769 510.394 312.8 473.88 235.39 473.087C157.98 472.293 128.635 487.047 71.4633 493C14.2911 498.953 0.20929 483.5 5.90686 446C11.6044 408.5 35.6085 404.117 42.6918 368C49.775 331.883 29.9757 288.932 20.3627 271.469C10.7497 254.006 24.1076 214.916 31.6968 191.5C39.286 168.084 -3.33203 158.282 0.209596 130.5C3.75122 102.718 31.6964 105 31.6964 80.5C31.6964 56 5.90667 56 5.90667 32Z" fill="#ECF022"/>
</svg>
