<svg width="500" height="510" viewBox="0 0 500 510" fill="none" xmlns="http://www.w3.org/2000/svg">
<path d="M23.19 0C23.19 0 2.66845 7.9434 12.3915 23.0359C22.1145 38.1283 60.0342 54.8095 62.4649 79.0368C64.8957 103.264 20.656 117.165 7.52995 135.038C-5.5961 152.91 8.98841 177.535 18.2253 189.847C27.4621 202.16 43.0189 207.323 51.2835 230.359C59.548 253.395 56.6311 270.076 59.548 283.977C62.4649 297.878 89.2032 315.75 78.0217 341.566C66.8403 367.382 56.8331 365.656 26.6918 387.5C-3.44949 409.344 -3.40557 419 4.36148 451C12.8312 485.895 109.118 508.917 143.166 509.966C194.698 511.555 270.537 456.348 325.472 446.419C380.407 436.49 500 473.824 500 473.824V0H23.19Z" fill="#ECF022"/>
</svg>
